<?xml version="1.0" encoding="UTF-8"?>
<svg id="Camada_1" xmlns="http://www.w3.org/2000/svg" version="1.1" viewBox="0 0 1080 1080">
  <!-- Generator: Adobe Illustrator 29.2.1, SVG Export Plug-In . SVG Version: 2.1.0 Build 116)  -->
  <defs>
    <style>
      .st0 {
        fill: #9af8d4;
      }

      .st1 {
        fill: #069f63;
      }

      .st2 {
        fill: #009e62;
      }

      .st3 {
        fill: #fd9d9f;
      }

      .st4 {
        fill: #050807;
      }

      .st5 {
        fill: #006d43;
      }

      .st6 {
        fill: #94efcc;
      }

      .st7 {
        fill: #32df9d;
      }

      .st8 {
        fill: #9dfed9;
      }

      .st9 {
        fill: #019f62;
      }

      .st10 {
        fill: #fefefe;
      }

      .st11 {
        fill: #bcfee4;
      }

      .st12 {
        fill: #95f1ce;
      }

      .st13 {
        fill: #030504;
      }

      .st14 {
        fill: #35c38c;
      }
    </style>
  </defs>
  <path class="st10" d="M712.4,330v419.52h-344.4v-419.52h344.4ZM619.34,336.48c-64.87-.08-129.76.07-194.63,0-3.6-.08-8.51,4.24-8.51,7.81v11.16h-13.79c-.92,0-3.37,1.21-4.18,1.82-5.42,4.12-3.15,11.25-3.62,17.14-17.96-.03-28.28,20.19-17.37,34.78,2.47,3.31,6.69,6.27,10.65,7.46l34.53,250.2c.48,11.54-.63,23.57,0,35.05,1.13,20.86,17.48,38.38,38.27,40.67,46.21.3,92.51.44,138.74.24,17.43-.07,30.71,1.35,44.5-11.27,19.89-18.21,12.53-40.96,14.03-64.68l30.94-250.2c4.38-1.25,8.98-4.78,11.47-8.57,8.71-13.25,1.08-30.52-14.24-33.42-.78-5.98,1.86-12.99-3.59-17.29-.89-.7-3.24-1.93-4.31-1.93h-13.55v-11.16c0-3.38-4.65-7.75-8.06-7.77-12.42-.07-24.85-.01-37.26-.03Z"/>
  <path class="st8" d="M640.45,417.6c2.09,95.96-8.24,192.16-30.62,285.32-3.21,13.36-6.72,26.65-10.39,39.88-46.23.2-92.53.05-138.74-.24-20.78-2.29-37.14-19.81-38.27-40.67-.62-11.48.49-23.51,0-35.05l-34.53-250.2c1.74.52,3.58.76,5.38.97,82.39-.1,164.78.09,247.16-.01ZM425.75,437.83c-12.99.99-20.18,15.04-19.62,26.93l15.03,123.2c6.77,30.45,42.25,22.42,40.85-7.52-4.88-37.79-8.76-75.72-13.7-113.49-.63-4.82-.97-9.8-2.67-14.37-3.05-8.18-10.63-15.45-19.89-14.75ZM475.16,507.43c-11.5,1.24-16.72,15.93-8.19,23.91,5.28-4.11,12.1-4.76,18.31-2.5,2.77,1.01,2.66,2.16,4.32-1.44,4.65-10.05-3.58-21.14-14.44-19.97ZM598.43,507.43c-11.48,1.3-16.68,15.93-8.19,23.92,5.28-4.11,12.1-4.76,18.31-2.5,2.25.82,2.35,2.22,3.94-.63,5.57-10.01-2.86-22.05-14.06-20.79ZM525.01,515.35c-.97.05-2.08,1.27-2.08,2.2-.01,8.12,2.91,16.18,11.04,19.2,12.92,4.8,24.02-6.84,22.31-19.69-.2-1.53-2.1-2.26-3.35-1.17s-.81,5.21-1.01,6.91c-1.59,13.84-22.17,14.61-24.37-.03-.24-1.6.08-5.94-1.03-6.89-.28-.24-1.14-.56-1.51-.54ZM544.04,599.04c-1.54,2.38-7.58,6.52-8.1,9.05-.75,3.62,3.31,6.77,6.41,4.74,2.39-1.57,12.45-11.71,14.16-14.15,1.19-1.69.84-3.6-.36-5.17-2.21-2.9-8.61-8.99-11.51-11.52-.79-.69-2.66-2.27-3.59-2.4-1.98-.28-3.71.25-4.64,2.09-1.99,3.94,1.96,5.84,4.03,8.47-9.27.11-18.04,2.43-25.88,7.34-11.28,7.06-21.53,20.46-22.77,34.09-.55,6.06,6.66,7.05,8.3,2.31.6-1.73.8-4,1.33-5.87,4.9-17.15,21.03-29.23,38.91-29.25,1.17,0,2.47.49,3.72.26ZM582.65,664.08c1.27-2.64,2.59-5.28,3.6-8.03,5.24-14.34,3.65-28.21-3.72-41.41-2.28-4.09-8.2-11.93-12.34-14.05-3.54-1.81-6.98,1.19-6.19,5,.36,1.76,4.29,4.53,5.71,6.05,11.01,11.75,13.96,29.38,7.39,44.13-1.05,2.37-2.56,4.49-3.57,6.87-.51.08-.39.02-.53-.3-1.46-3.22-1.43-11.41-5.64-12.12-1.99-.33-4.07.51-4.9,2.42-.63,1.44-.35,2.11-.08,3.53,1.11,5.76,3.4,11.78,4.8,17.52,1.22,2.01,2.63,2.69,4.98,2.34,5.43-.81,11.62-3.72,17.15-4.67,3.36-.81,4.41-5.26,1.85-7.51s-5.78-.15-8.51.24ZM446.86,615.67c-16.37,1.45-25.03,20.05-15.88,33.75,8.37,12.52,27.52,12.43,35.79-.14,10-15.21-1.82-35.2-19.91-33.6ZM529.11,621.67c-3.74.45-7.26,3.11-8.91,6.44-6.85,13.85,10.27,23.39,18.57,31.27,1.14.75,2.43.42,3.46-.35,3.29-2.43,7.88-6.61,10.92-9.48,6.16-5.8,11.34-12.7,7.08-21.49-3.07-6.33-11.56-8.59-17.24-4.27-.5.38-2.54,2.64-2.89,2.58-3.03-3.4-6.27-5.29-11-4.72ZM497.75,663.6c10.42,19.34,33.56,28.62,54.79,23.26,3.65-.92,10.89-2.97,7.53-8.22-2.29-3.6-6.39-1.04-9.5-.23-19.09,4.98-38.82-4.36-47.05-22.13,3.94.1,12.16,5.26,14.43.05.55-1.26.55-2.43,0-3.69-.75-1.73-2.02-2.05-3.64-2.59-4.03-1.34-12.48-3.87-16.49-4.38-4.57-.58-4.9,2.06-5.99,5.65-1.19,3.92-3.28,10.53-3.85,14.39-.43,2.9.85,5.82,4.14,5.82,4.16,0,4.29-4.58,5.28-7.44.08-.23.03-.55.35-.48Z"/>
  <path class="st2" d="M619.34,336.48c4.62,2.08,9.97,2.62,14.37,5.18,5.06,2.95,9,8.16,11.16,13.55,8.58,2.22,15.71,10.13,15.96,19.19h16.07c.05.42-.54.23-.84.24-2.95.12-5.93-.08-8.89,0l-4.67.49c9.86.76,19.28,8.55,21.03,18.43,1.39,7.82-2.02,15.03-7.84,20.09l-5.28,3.47,14.39.24c-.1.01-.5.4-.81.26-14.52-.02-29.04-.04-43.56-.02-82.38.1-164.77-.09-247.16.01-1.81-.21-3.64-.45-5.38-.97-3.97-1.19-8.18-4.15-10.65-7.46-10.91-14.59-.6-34.81,17.37-34.78.47-5.89-1.8-13.02,3.62-17.14.8-.61,3.26-1.82,4.18-1.82h13.79v-11.16c0-3.57,4.91-7.89,8.51-7.81,64.88.08,129.76-.07,194.63,0ZM405.84,359.34c-7.87,1.74-8.33,12.79-.55,15.06h96.66c7.98-2.34,7.23-13.79-.97-15.12l-95.15.06ZM403.44,381.42c-5.39.73-9.31,5.95-8.79,11.31,1.29,13.3,23.77,12.23,23-1.66-.42-7.58-7.47-10.56-14.22-9.65Z"/>
  <path class="st7" d="M688.9,416.64l-30.94,250.2c-1.49,23.73,5.86,46.48-14.03,64.68-13.79,12.62-27.06,11.2-44.5,11.27,3.67-13.23,7.18-26.52,10.39-39.88,22.38-93.16,32.72-189.35,30.62-285.32,14.52-.02,29.04,0,43.56.02.31.14.71-.25.81-.26.23-.03.49.03.72,0l.24-.24c1.1-.18,1.92-.14,3.12-.48Z"/>
  <path class="st5" d="M619.34,336.48c12.42.02,24.84-.04,37.26.03,3.41.02,8.06,4.39,8.06,7.77v11.16h13.55c1.07,0,3.43,1.23,4.31,1.93,5.45,4.3,2.81,11.31,3.59,17.29,15.32,2.89,22.95,20.17,14.24,33.42-2.49,3.79-7.09,7.32-11.47,8.57-1.2.34-2.02.3-3.12.48-.19.03-.22.24-.24.24-.23.03-.49-.03-.72,0l-14.39-.24,5.28-3.47c5.82-5.06,9.23-12.27,7.84-20.09-1.75-9.89-11.17-17.67-21.03-18.43l4.67-.49c2.95-.07,5.93.13,8.89,0,.29-.01.89.18.84-.24h-16.07c-.24-9.06-7.38-16.97-15.96-19.19-2.16-5.39-6.1-10.6-11.16-13.55-4.4-2.56-9.75-3.1-14.37-5.18Z"/>
  <path class="st11" d="M425.75,437.83c9.26-.71,16.84,6.57,19.89,14.75,1.7,4.57,2.04,9.55,2.67,14.37,4.94,37.78,8.81,75.71,13.7,113.49,1.4,29.93-34.08,37.97-40.85,7.52l-15.03-123.2c-.57-11.88,6.62-25.93,19.62-26.93Z"/>
  <path class="st11" d="M446.86,615.67c18.09-1.6,29.91,18.39,19.91,33.6-8.27,12.57-27.42,12.66-35.79.14-9.15-13.7-.49-32.3,15.88-33.75Z"/>
  <path class="st9" d="M544.04,599.04c-1.25.22-2.55-.26-3.72-.26-17.88.02-34.01,12.1-38.91,29.25-.53,1.86-.74,4.14-1.33,5.87-1.64,4.74-8.85,3.75-8.3-2.31,1.24-13.63,11.49-27.02,22.77-34.09,7.85-4.91,16.61-7.23,25.88-7.34-2.07-2.63-6.03-4.53-4.03-8.47.94-1.85,2.66-2.37,4.64-2.09.94.13,2.81,1.72,3.59,2.4,2.9,2.53,9.3,8.62,11.51,11.52,1.2,1.57,1.55,3.47.36,5.17-1.71,2.43-11.77,12.58-14.16,14.15-3.1,2.04-7.16-1.11-6.41-4.74.52-2.53,6.56-6.67,8.1-9.05Z"/>
  <path class="st9" d="M582.65,664.08c2.73-.39,6.03-2.42,8.51-.24s1.51,6.7-1.85,7.51c-5.54.96-11.72,3.86-17.15,4.67-2.35.35-3.76-.33-4.98-2.34-1.4-5.74-3.69-11.76-4.8-17.52-.27-1.42-.55-2.09.08-3.53.83-1.91,2.91-2.75,4.9-2.42,4.21.71,4.18,8.9,5.64,12.12.15.32.02.38.53.3,1.01-2.38,2.51-4.51,3.57-6.87,6.56-14.75,3.62-32.39-7.39-44.13-1.42-1.52-5.34-4.29-5.71-6.05-.79-3.81,2.65-6.81,6.19-5,4.14,2.12,10.06,9.95,12.34,14.05,7.37,13.2,8.96,27.07,3.72,41.41-1.01,2.76-2.33,5.4-3.6,8.03Z"/>
  <path class="st9" d="M497.75,663.6c-.32-.07-.27.25-.35.48-1,2.85-1.12,7.44-5.28,7.44-3.29,0-4.56-2.92-4.14-5.82.57-3.86,2.66-10.47,3.85-14.39,1.09-3.58,1.41-6.23,5.99-5.65,4.01.51,12.46,3.03,16.49,4.38,1.63.54,2.89.86,3.64,2.59.55,1.26.55,2.43,0,3.69-2.27,5.22-10.49.05-14.43-.05,8.23,17.77,27.96,27.11,47.05,22.13,3.11-.81,7.21-3.37,9.5.23,3.36,5.26-3.88,7.3-7.53,8.22-21.23,5.36-44.36-3.92-54.79-23.26Z"/>
  <path class="st13" d="M475.16,507.43c10.86-1.17,19.09,9.92,14.44,19.97-1.67,3.6-1.55,2.45-4.32,1.44-6.21-2.26-13.03-1.61-18.31,2.5-8.53-7.99-3.3-22.67,8.19-23.91ZM481.85,511.97c-1.48.44-1.8,3.15-.19,3.68,3.85,1.28,3.75-4.74.19-3.68ZM473.22,513.9c-1.57.26-3.26,1.64-3.83,3.13-2.12,5.57,5.39,9.8,8.93,4.85,2.66-3.73-.59-8.73-5.1-7.98Z"/>
  <path class="st13" d="M598.43,507.43c11.2-1.27,19.62,10.77,14.06,20.79-1.58,2.85-1.68,1.45-3.94.63-6.21-2.26-13.03-1.61-18.31,2.5-8.49-7.99-3.29-22.62,8.19-23.92ZM605.12,511.97c-2,.61-1.41,4.63,1.58,3.74,2.06-.61,1.25-4.6-1.58-3.74ZM596.5,513.9c-1.43.24-3.06,1.5-3.66,2.82-2.48,5.42,4.57,9.92,8.37,5.74,3.34-3.66.14-9.37-4.72-8.56Z"/>
  <path class="st1" d="M529.11,621.67c4.73-.57,7.97,1.32,11,4.72.35.06,2.38-2.2,2.89-2.58,5.68-4.32,14.17-2.06,17.24,4.27,4.26,8.79-.92,15.69-7.08,21.49-3.04,2.86-7.63,7.05-10.92,9.48-1.03.76-2.32,1.1-3.46.35-8.3-7.89-25.42-17.42-18.57-31.27,1.65-3.33,5.17-5.99,8.91-6.44ZM528.87,624.3c-7.65,1.19-9.1,10.89-5.65,16.82,2.11,3.62,12.48,12.89,16.14,15.53.33.24.65.55,1.09.39,7.17-6.74,25.16-17.5,16.5-29.26-3.01-4.09-8.83-4.75-12.78-1.6-1.08.86-2.4,3.19-3.11,3.61-1.82,1.06-2.71-1.45-3.73-2.54-2.28-2.45-5.11-3.46-8.46-2.94Z"/>
  <path class="st4" d="M525.01,515.35c.38-.02,1.23.3,1.51.54,1.11.95.79,5.29,1.03,6.89,2.2,14.64,22.78,13.87,24.37.03.2-1.7-.19-5.86,1.01-6.91s3.15-.36,3.35,1.17c1.71,12.85-9.4,24.49-22.31,19.69-8.13-3.03-11.06-11.09-11.04-19.2,0-.93,1.12-2.15,2.08-2.2Z"/>
  <path class="st14" d="M405.84,359.34l95.15-.06c8.2,1.33,8.95,12.78.97,15.12h-96.66c-7.78-2.28-7.32-13.32.55-15.06Z"/>
  <path class="st14" d="M403.44,381.42c6.75-.91,13.8,2.07,14.22,9.65.77,13.89-21.71,14.97-23,1.66-.52-5.36,3.4-10.58,8.79-11.31Z"/>
  <path class="st2" d="M685.54,417.36s.05-.21.24-.24l-.24.24Z"/>
  <path class="st0" d="M473.22,513.9c4.51-.75,7.76,4.25,5.1,7.98-3.53,4.95-11.05.72-8.93-4.85.57-1.49,2.26-2.87,3.83-3.13Z"/>
  <path class="st6" d="M481.85,511.97c3.56-1.06,3.66,4.96-.19,3.68-1.61-.54-1.29-3.25.19-3.68Z"/>
  <path class="st0" d="M596.5,513.9c4.85-.81,8.05,4.9,4.72,8.56-3.81,4.18-10.85-.32-8.37-5.74.6-1.31,2.23-2.58,3.66-2.82Z"/>
  <path class="st12" d="M605.12,511.97c2.83-.86,3.64,3.13,1.58,3.74-3,.89-3.58-3.13-1.58-3.74Z"/>
  <path class="st3" d="M528.87,624.3c3.35-.52,6.18.48,8.46,2.94,1.02,1.09,1.91,3.59,3.73,2.54.71-.41,2.03-2.75,3.11-3.61,3.96-3.16,9.77-2.5,12.78,1.6,8.66,11.76-9.33,22.53-16.5,29.26-.44.17-.76-.15-1.09-.39-3.66-2.63-14.03-11.91-16.14-15.53-3.46-5.93-2.01-15.62,5.65-16.82Z"/>
</svg>