<?xml version="1.0" encoding="UTF-8"?>
<svg id="Camada_1" xmlns="http://www.w3.org/2000/svg" version="1.1" viewBox="0 0 1080 758.8">
  <!-- Generator: Adobe Illustrator 29.2.1, SVG Export Plug-In . SVG Version: 2.1.0 Build 116)  -->
  <defs>
    <style>
      .st0 {
        fill: #fafffd;
      }

      .st1 {
        fill: #9effda;
      }

      .st2 {
        fill: #fff;
      }

      .st3 {
        fill: #fefffe;
      }

      .st4 {
        fill: #009f62;
      }

      .st5 {
        fill: #9eddff;
      }

      .st6 {
        fill: #ff9edf;
      }

      .st7 {
        fill: #fffc9e;
      }

      .st8 {
        fill: #ff9ea0;
      }

      .st9 {
        fill: #feffff;
      }

      .st10 {
        fill: #9fffda;
      }
    </style>
  </defs>
  <path class="st2" d="M1077.1,0v764.5H2.9V0h1074.2ZM663.9,90.8c-13.4-25.1-32.9-46.2-57.3-61-49.8-30.2-129-21.4-176.3,9.9-24.1,15.9-45.5,35.1-60.2,60.2-1.8.2-1.1,0-1.4-1-4.5-15.3-6.4-21.8-16.2-34.8-29.7-39.7-90.8-47.9-136.8-40-73.7,12.6-151.2,46.5-156.9,131.4-1.3,19.1,3.8,37.6,8.9,55.7-25.2,34.9-28.7,86.1-7.6,123.8l18.3,26.8c-22.1,2.6-37.7,17.1-48.9,35.2-14.8,23.9-9.1,39.5-8.3,65.6,1.5,54.3-.6,109.2-1.5,163.4-.6,35.5-6.3,69.3,21.6,96.4,33.5,32.5,96.9,25.1,119-17.2,5-9.5,5.8-24.8,8.7-35.3l1.1-1c22.3,8.5,44.7,19.5,67.8,25.8,4.8,1.3,13.5,3.8,18.2,4.1,7,.6,27.4-5.1,34.5-8,1.7-.7,9.1-5.1,9.8-4.5,3.6,22.3,19.3,44.1,39.3,54.6,6,3.1,24.3,8.3,30.8,8.3s13.6-2.7,18.5-3.9c13-3.3,23.3-6.8,33.7-15.7,12.8,11.8,26,16.8,42.9,20,23.9,4.5,59.5-2.5,83.9-7.1,72.8-13.7,159-37.7,192.6-110.7,1.3-.2.6,1.5.5,2.3-2.3,14.6-4.9,15.1-1.6,31.3,14.6,72,105.9,76.1,164.4,64.6,43.1-8.5,85.4-20.8,119.7-49.2,46.3-38.6,54.9-110.5,14-156.4-4.8-5.3-10.9-10.3-17.1-14-.5-.8,7.1-9.9,8.2-11.6,16-23.7,18.8-61.8,2.8-86.3-18-27.7-45.3-46.8-77.1-55.6-9.4-2.6-19.1-4-28.6-6.3-.9-.2-1.8,0-2.4-1,23.5-14.9,42.5-33.4,57.8-56.7,33.5-50.9,33.9-124.5.7-175.7C917.7,15.9,772.5-.9,681,75.4c-4.9,4.1-11,11.6-15.4,14.7-.6.4-.7,1-1.7.7h0Z"/>
  <path class="st1" d="M663.9,90.8c1.1.3,1.1-.3,1.7-.7,4.4-3,10.5-10.6,15.4-14.7C772.5-.9,917.8,15.9,983.5,117.1c33.2,51.2,32.8,124.8-.7,175.7-15.3,23.3-34.3,41.7-57.8,56.7.6,1,1.5.8,2.4,1,9.5,2.3,19.1,3.7,28.6,6.3,31.8,8.8,59,27.9,77.1,55.6,16,24.5,13.2,62.6-2.8,86.3-1.2,1.7-8.7,10.9-8.2,11.6,6.2,3.6,12.4,8.6,17.1,14,40.9,45.9,32.4,117.8-14,156.4-34.2,28.5-76.6,40.8-119.7,49.2-58.5,11.5-149.8,7.4-164.4-64.6-3.3-16.1-.7-16.6,1.6-31.3.1-.7.7-2.4-.5-2.3-33.6,73-119.8,97-192.6,110.7-24.4,4.6-60,11.6-83.9,7.1-16.9-3.2-30.1-8.2-42.9-20-10.4,8.8-20.8,12.4-33.7,15.7-4.9,1.2-13.9,3.9-18.5,3.9s-24.9-5.2-30.8-8.3c-20-10.5-35.7-32.3-39.3-54.6-.7-.6-8.1,3.9-9.8,4.5-7.1,2.9-27.4,8.5-34.5,8-4.7-.4-13.4-2.8-18.2-4.1-23.1-6.3-45.5-17.2-67.8-25.8l-1.1,1c-2.9,10.5-3.7,25.8-8.7,35.3-22.1,42.3-85.5,49.7-119,17.2-27.9-27.1-22.2-60.9-21.6-96.4.9-54.2,3-109.1,1.5-163.4-.7-26.1-6.5-41.7,8.3-65.6,11.2-18.1,26.8-32.7,48.9-35.2l-18.3-26.8c-21.1-37.7-17.6-89,7.6-123.8-5.1-18.1-10.2-36.6-8.9-55.7,5.7-84.9,83.2-118.8,156.9-131.4,46-7.9,107.1.4,136.8,40,9.7,13,11.7,19.5,16.2,34.8.3,1-.4,1.2,1.4,1,14.8-25.1,36.2-44.3,60.2-60.2,47.3-31.3,126.6-40.1,176.3-9.9,24.4,14.8,43.9,36,57.3,61h0ZM549.2,134.3c1.7,1.5,3.8,5,5.5,6.8,19.1,19.7,32,33.6,61.5,22.4,20.7-7.9,26-24.6,23.4-45.8-1-7.9-20.1-33-26.2-39.4-44.1-46.2-120.9-40.8-170.2-6.1-76.6,53.9-87.9,153.4-30.5,226.4,48.3,61.5,127.6,49.8,189.6,16.6,25.4-13.6,42.5-28.4,39.2-59.7-2.3-22.1-27.9-33.6-47.8-31.9-7.6.7-20.4,10.2-27.8,14.1-29.1,15.5-70.7,38.5-93.2.8-30.2-50.9,3.4-113.8,64.4-108.5,3.5.3,9.3,2.2,11.9,4.5h0ZM176.9,279.1c-5.4-5.4,7.9-12,11.5-13.7,23.6-11,58-10.2,73.1-34.4,9.2-14.8,8.9-43-4.8-55.1-18.2-16-39.8-5.7-60-7.7-14.2-1.4-.8-12.5,5.5-15.5,16.6-7.8,40.5-11.5,58.4-7.9,19.6,3.8,25.6,15.3,48.8,6.3,48.9-18.9,26.9-71.1-11.4-87-47.1-19.6-119.8-3.2-162.1,23.2-38.6,24.1-52.2,66-37.3,109.3,2.3,6.5,5.8,12.4,8.4,18.8-18,20.8-28.1,41.6-26.5,69.8,1.5,26.5,18.5,53.6,41.4,66.8,41.2,23.8,116.1,11.8,160.2-1.3s88.5-34.3,72.4-88.9c-3.4-11.3-10.1-23-21.8-27.1-21-7.4-30.5,4.5-47.2,13.9-26.5,15-56.7,27.6-87.4,30.6-3.5.3-19.3,1.6-21.1-.2h0ZM802,62.3c-94.6,5.4-175.3,90.8-140.3,187.4,33.9,93.7,162.3,122.8,243,72.4,93.4-58.4,93.3-178.2-.7-235.9-30.6-18.8-66.2-26-102-23.9h0ZM569,195.5c-9.8-4.8-20.2-12.1-28.3-19.5-1.9-1.7-10.1-11.2-10.8-11.5-4.6-1.9-15,1.2-19.1,3.9-16.8,11.5-19.7,37.6-7.7,53.6,2.3,3,3.8,3.3,7.6,2.8,10.9-1.4,46.5-20.5,56.5-27.3.5-.3,2.2-1.6,1.9-2h0ZM344.9,169.7l-14.2,9.2c-9.6,5.2-20.6,7-31.2,9l2.1,13.3c6.3-.8,12.8-3,19.2-2.8,6.9.2,14.4,3.3,21.3,4.2.5-11,.7-22,2.8-32.8h0ZM528.5,375.6c-1.3.1-2.8,0-4.2,0-10.8.5-25.2.7-35.9,0-8.4-.6-16.5-3.3-24.8-4.5,3.3,6.4,9.2,11.3,9.1,19.2,16-7.6,33.9-11.8,51.6-13.3,1.3-.1,2.5-.6,4.2-.7,56.6-2.2,117.4,20.2,159.9,56.9,7.3,6.3,13.4,13.8,20.6,19.9,6.4-15.4,15.7-30.6,26.5-43.3,8.6-10.1,19.3-18.1,30.2-25.7,1-.7,10.6-6.5,10-7.1-26.6-4.5-50.6-13-73.1-27.8-9.5-6.2-20.5-14.4-28.8-22.1-4.9-4.6-9.2-10.1-14.2-14.3-10,12.4-24.5,23-38.3,30.8-22.1,12.4-67.7,29.3-92.6,32h0ZM395.9,331.6c-3.2-3.4-6.3-8.6-9.4-11.9-.7-.7-1.2-1.6-2.4-1.4-.8,5.3-5.2,9.4-7.7,14,7-2,12.4-2.4,19.5-.7h0ZM385.2,364.6c-11.8,1.4-19.7,14.8-26.4,23.2-7.1.7-30.6,4.1-32.6,12-3,12,9.7,26.1,17.2,34.2-3.4,11.1-13.1,28.9-2.3,38.6,13.1,11.7,31.1-5.2,42-12.4,10.5,6.7,29.7,19.7,42.4,12.3,12.6-7.3,4.1-29.4.6-39.9,5.2-7.7,16.4-17.6,16-27.4-.7-16.6-16.7-18.4-30-17.4-4.8-10.6-13-24.9-26.7-23.3h0ZM824.4,492.9c1-3.8,3.4-7.5,6.3-10.1,16.7-15.4,73-21.9,92.6-11.6,9.8,5.2,13.7,15.8,24,20,21.5,8.9,48.9,5.3,58.5-18.3,8.1-20,5.2-35.8-8.6-51.9-43.6-50.8-134.4-45.7-190.5-20.8-41,18.2-68.9,52-74.4,97.4-5,42.1,39,73.9,76.4,79.8,36.8,5.8,81.1,6.8,116.3,17.7,4.4,1.4,9.9,2,4.3,6.7-11.7,9.8-61.8,15.2-77.4,14.1-24.8-1.8-51.4-17.9-69.7,9.1-21.2,31.1-3.9,60.1,29.1,69.9,70.1,20.8,243.9-17,218-119.6-15.2-60.1-103.6-64.8-152.7-72.7-17.4-2.8-34.9-5.8-52.1-9.7h0ZM139.7,621.3c.4-.4,9.1,1.3,10.5,1.7,13.5,4.2,30.3,13.3,44,18.8,14.8,6,47.6,21.2,61.8,22.6,15.8,1.5,38.1-12.6,41.8-28.5,5.2-22.5-3.7-42.7-24.1-53.4-21.7-11.4-48.9-16.9-70.5-30.1-6.5-4-6.5-4.5-.8-9.7,13-11.8,35-23.2,50.1-33.7,14.1-9.8,56.1-39.3,58.7-55.8.7-4.7.6-15.8.2-20.8-2.3-24.5-34.1-36.2-55.2-30.1-36.5,26.4-73.3,52.3-111.2,76.5-3.1,1.6-6.8.5-7.3-3.2-2.2-14,2-31-1.1-45.7s-12.7-31.9-28.9-35.3c-27.5-5.7-45.4,5.7-54.5,31.4,4.1,76.7,1.7,153.8.7,230.4-.2,17.3-3.1,24.3,9.4,38.7,18.9,21.9,60.2,16.2,68.6-11.7,5.8-19.2,5.4-42.4,7.9-62.3h0ZM201.8,399.4l-40.5-.7c3.2,7.4,6.2,15,7,23l3-.8,30.5-21.5h0ZM526.2,410.7c-48.5,2.9-72.9,34.9-75.3,81.8-1.4,27.9-.2,60.1,2.1,88,1.5,17.9,4,35.9,6.3,53.7-5.8,7.3-13.1,12.9-17.8,21.3-11.3,20-4.2,49.4,18.1,58,18.7,7.2,47.8,1.5,67.6-1.5,71.9-11,187.2-39,192.4-128.7,2.7-46.9-7.8-75.2-38.8-109.3-38.5-42.4-97.1-66.8-154.8-63.3h0ZM363.6,500.8c-29,3.1-35.8,47.4-38.2,70.7-3.6,34.2-1.8,68.2,5.8,101.7,7.9,34.9,34.7,54.6,67.7,31.9,8.4-5.8,13.9-15.7,13.8-26.1-.4-29.4-5.8-57.6-4.3-88,1-20.6,8.1-44,6.3-64.2-2.2-25.1-31.2-28.1-51.1-25.9h0ZM303.7,513.8l-39.1,28.6,29.3,11.9,9.8-40.5h0ZM748.4,614.4c1.6-2.6,11.9-15.4,11.9-17.1,0-.8-5.8-4.9-6.7-5.2-1.3-.5-.9.4-1,1-1.7,7-2.9,14.2-4.2,21.3h0ZM748.3,616.5c.5-1-.4-1.9-.7-1.4-.5,1,.4,1.9.7,1.4Z"/>
  <path class="st5" d="M824.4,492.9c17.2,3.9,34.7,6.9,52.1,9.7,49.2,7.9,137.5,12.6,152.7,72.7,26,102.5-147.8,140.4-218,119.6-33-9.8-50.2-38.8-29.1-69.9,18.4-27,44.9-10.9,69.7-9.1,15.5,1.1,65.7-4.3,77.4-14.1,5.6-4.7.1-5.3-4.3-6.7-35.2-11-79.5-12-116.3-17.7-37.4-5.9-81.5-37.7-76.4-79.8,5.4-45.4,33.3-79.2,74.4-97.4,56.1-24.9,146.9-29.9,190.5,20.8,13.8,16,16.7,31.8,8.6,51.9-9.6,23.6-36.9,27.2-58.5,18.3-10.3-4.2-14.1-14.8-24-20-19.6-10.3-75.9-3.7-92.6,11.6-2.9,2.6-5.3,6.3-6.3,10.1h0Z"/>
  <path class="st4" d="M176.9,279.1c1.8,1.8,17.6.5,21.1.2,30.7-3,60.8-15.6,87.4-30.6,16.6-9.4,26.2-21.3,47.2-13.9,11.7,4.1,18.4,15.7,21.8,27.1,16.1,54.6-28.9,75.9-72.4,88.9-43.6,13-119,25.2-160.2,1.3-22.9-13.2-40-40.3-41.4-66.8-1.5-28.2,8.6-49,26.5-69.8-2.6-6.4-6.2-12.3-8.4-18.8-14.9-43.3-1.3-85.2,37.3-109.3,42.2-26.3,114.9-42.8,162.1-23.2,38.3,15.9,60.3,68.1,11.4,87-23.3,9-29.2-2.5-48.8-6.3-18-3.5-41.9.1-58.4,7.9-6.3,3-19.6,14.1-5.5,15.5,20.2,2,41.8-8.3,60,7.7,13.7,12.1,14.1,40.3,4.8,55.1-15.1,24.1-49.6,23.4-73.1,34.4-3.6,1.6-16.8,8.3-11.5,13.7h0Z"/>
  <path class="st8" d="M526.2,410.7c57.7-3.5,116.3,21,154.8,63.3,31,34.1,41.5,62.4,38.8,109.3-5.2,89.7-120.6,117.7-192.4,128.7-19.8,3-49,8.7-67.6,1.5-22.4-8.6-29.5-38-18.1-58,4.8-8.4,12-14,17.8-21.3-2.3-17.9-4.8-35.8-6.3-53.7-2.3-27.9-3.6-60.1-2.1-88,2.4-46.9,26.8-78.9,75.3-81.8h0ZM537,495.8c-.2.1-2.9,4.5-3.1,4.9-2,5.3,0,21,.2,27.4.7,25.7.6,58.8,7.5,83.3,1,3.5,2.4,10.9,6.7,10.6,5.2-.4,15.4-3.6,20.8-5,34.2-9.2,82.9-24.2,63.5-69.4-11.4-26.7-55.1-47.4-82.4-51.6-2-.3-12.1-.8-13.2-.2h0Z"/>
  <path class="st4" d="M802,62.3c35.8-2,71.4,5.2,102,23.9,94,57.6,94.1,177.5.7,235.9-80.8,50.5-209.2,21.4-243-72.4-34.9-96.7,45.7-182.1,140.3-187.4h0ZM749.6,218.7c.9,1.6-7.8,29.4-8.1,33.7,1.9,8.5,9.4,16.7,18.4,17.1,5.4.2,21.2-8.7,26.9-11.5,8.6-4.4,16.8-9.4,25.5-13.6,11.1,6.7,21.7,14.8,33.6,20.1,10.4,4.6,17.1,7.8,26.8-.2,5.3-4.4,7.1-9.6,6.1-16.6l-10.2-32.2c6.3-7.2,15-21.5,16.4-31,2.8-17.8-24.6-24.2-37.5-25.7-8.3-13.7-22.8-38.8-41.9-34.9-9.5,1.9-20.2,15.7-25.7,23.2-1.6,2.1-8.2,13.2-9.2,13.8-1.7,1-11.2-.5-14.3-.4-9.6.3-26.6,3.3-28.2,15.1-2.5,18.3,7.8,32.5,21.4,43h0Z"/>
  <path class="st6" d="M139.7,621.3c-2.4,19.9-2.1,43.1-7.9,62.3-8.4,27.9-49.7,33.6-68.6,11.7-12.5-14.4-9.6-21.4-9.4-38.7,1-76.7,3.4-153.7-.7-230.4,9.1-25.7,27-37.2,54.5-31.4,16.3,3.4,25.8,20.1,28.9,35.3s-1.1,31.7,1.1,45.7c.6,3.7,4.2,4.9,7.3,3.2,37.9-24.2,74.8-50.2,111.2-76.5,21.1-6.1,52.9,5.5,55.2,30.1.5,4.9.6,16.1-.2,20.8-2.6,16.5-44.6,46-58.7,55.8-15.1,10.5-37.1,21.9-50.1,33.7-5.7,5.2-5.8,5.7.8,9.7,21.6,13.2,48.8,18.7,70.5,30.1,20.4,10.7,29.3,30.9,24.1,53.4-3.7,16-26,30.1-41.8,28.5-14.2-1.4-47.1-16.7-61.8-22.6-13.7-5.5-30.5-14.7-44-18.8-1.4-.4-10.1-2.2-10.5-1.7h0Z"/>
  <path class="st4" d="M549.2,134.3c-2.7-2.3-8.5-4.1-11.9-4.5-61.1-5.3-94.7,57.6-64.4,108.5,22.4,37.7,64.1,14.7,93.2-.8,7.4-3.9,20.2-13.5,27.8-14.1,19.9-1.7,45.4,9.8,47.8,31.9,3.3,31.3-13.8,46.1-39.2,59.7-62,33.3-141.3,44.9-189.6-16.6-57.4-73-46.2-172.5,30.5-226.4,49.3-34.7,126.1-40.1,170.2,6.1,6.1,6.4,25.2,31.5,26.2,39.4,2.6,21.2-2.7,37.8-23.4,45.8-29.4,11.3-42.4-2.7-61.5-22.4-1.7-1.7-3.8-5.3-5.5-6.8h0Z"/>
  <path class="st7" d="M363.6,500.8c20-2.1,49,.8,51.1,25.9,1.7,20.2-5.3,43.6-6.3,64.2-1.5,30.4,3.9,58.6,4.3,88,.1,10.4-5.4,20.3-13.8,26.1-33,22.7-59.9,3.1-67.7-31.9-7.6-33.6-9.3-67.5-5.8-101.7,2.4-23.2,9.2-67.5,38.2-70.7h0Z"/>
  <path class="st2" d="M528.5,375.6c24.9-2.7,70.5-19.5,92.6-32,13.9-7.8,28.4-18.4,38.3-30.8,5,4.2,9.3,9.7,14.2,14.3,8.3,7.7,19.3,15.9,28.8,22.1,22.5,14.8,46.5,23.3,73.1,27.8.6.6-9,6.4-10,7.1-10.9,7.6-21.5,15.6-30.2,25.7-10.9,12.7-20.2,27.9-26.5,43.3-7.2-6.2-13.3-13.6-20.6-19.9-42.4-36.7-103.3-59.1-159.9-56.9v-.7h0Z"/>
  <path class="st7" d="M385.2,364.6c13.7-1.6,21.9,12.7,26.7,23.3,13.3-1,29.4.7,30,17.4.4,9.8-10.8,19.7-16,27.4,3.5,10.5,12,32.6-.6,39.9s-31.9-5.6-42.4-12.3c-10.9,7.2-28.9,24.2-42,12.4-10.7-9.6-1.1-27.5,2.3-38.6-7.5-8.1-20.2-22.2-17.2-34.2,2-8,25.5-11.4,32.6-12,6.7-8.5,14.6-21.8,26.4-23.2h0Z"/>
  <path class="st9" d="M569,195.5c.3.4-1.4,1.6-1.9,2-10,6.8-45.6,25.9-56.5,27.3-3.8.5-5.3.3-7.6-2.8-12-16-9.1-42.1,7.7-53.6,4.1-2.8,14.5-5.9,19.1-3.9.7.3,8.9,9.8,10.8,11.5,8,7.4,18.5,14.7,28.3,19.5h0Z"/>
  <path class="st3" d="M344.9,169.7c-2.1,10.8-2.3,21.8-2.8,32.8-6.8-.9-14.4-4.1-21.3-4.2-6.4-.1-13,2-19.2,2.8l-2.1-13.3c10.6-1.9,21.6-3.8,31.2-9l14.2-9.2h0Z"/>
  <polygon class="st3" points="303.7 513.8 293.9 554.3 264.6 542.5 303.7 513.8"/>
  <path class="st3" d="M201.8,399.4l-30.5,21.5-3,.8c-.8-8.1-3.8-15.7-7-23l40.5.7h0Z"/>
  <path class="st0" d="M524.3,375.6v1.4c-17.7,1.5-35.6,5.6-51.6,13.3.2-7.9-5.8-12.8-9.1-19.2,8.3,1.2,16.4,4,24.8,4.5,10.7.7,25.2.5,35.9,0h0Z"/>
  <path class="st0" d="M395.9,331.6c-7.1-1.7-12.5-1.3-19.5.7,2.5-4.6,6.8-8.7,7.7-14,1.2-.2,1.7.6,2.4,1.4,3.2,3.2,6.2,8.4,9.4,11.9h0Z"/>
  <path class="st0" d="M748.4,614.4c1.3-7.1,2.5-14.3,4.2-21.3.1-.6-.3-1.6,1-1,.8.3,6.7,4.4,6.7,5.2,0,1.7-10.3,14.5-11.9,17.1h0Z"/>
  <path class="st2" d="M528.5,375.6v.7c-1.6,0-2.9.6-4.2.7v-1.4c1.4,0,2.9.1,4.2,0h0Z"/>
  <path class="st0" d="M748.3,616.5c-.2.5-1.2-.4-.7-1.4.2-.5,1.2.4.7,1.4Z"/>
  <path class="st10" d="M537,495.8c1-.6,11.2-.1,13.2.2,27.4,4.2,71,24.9,82.4,51.6,19.4,45.2-29.3,60.2-63.5,69.4-5.5,1.5-15.7,4.7-20.8,5-4.4.3-5.8-7.1-6.7-10.6-6.9-24.5-6.8-57.6-7.5-83.3-.2-6.4-2.2-22-.2-27.4.2-.4,2.8-4.8,3.1-4.9h0ZM571.1,580.9c.7.7,17-6.1,19.1-7.1,2.3-1.1,9.9-4.7,11.3-6.1,3.8-4-4.7-13.4-7.7-16.1-7-6.2-16.8-10.5-25.5-14l2.8,43.3h0Z"/>
  <path class="st1" d="M749.6,218.7c-13.6-10.5-24-24.7-21.4-43,1.6-11.7,18.6-14.8,28.2-15.1,3.2,0,12.6,1.4,14.3.4,1-.6,7.6-11.7,9.2-13.8,5.5-7.5,16.2-21.3,25.7-23.2,19.1-3.9,33.6,21.3,41.9,34.9,13,1.5,40.3,7.9,37.5,25.7-1.5,9.5-10.1,23.7-16.4,31l10.2,32.2c1,7-.8,12.2-6.1,16.6-9.7,8.1-16.4,4.9-26.8.2-11.9-5.3-22.5-13.4-33.6-20.1-8.7,4.2-16.9,9.2-25.5,13.6-5.6,2.9-21.5,11.8-26.9,11.5-9.1-.4-16.5-8.7-18.4-17.1.4-4.3,9.1-32.2,8.1-33.7h0ZM811.2,164.1c-1-.7-3.2,2.2-3.8,2.9-4.5,5.4-7.7,13.8-12.8,18.8-5.7,5.5-12.8,7.6-20.4,9.1,6.3,7.5,8.7,15.5,9.8,25.1.8.7,11.8-5.9,14-6.6,10.1-3.5,19-3.8,29.2.1,2.9,1.1,4.9,3.5,7.8,4.4-.6-4.6,1.1-12.6,2.8-17.1,1.3-3.3,4.5-5.4,4.8-8.8-16.2-.9-24.8-14.9-31.4-27.9h0Z"/>
  <path class="st3" d="M571.1,580.9l-2.8-43.3c8.6,3.4,18.4,7.7,25.5,14,3.1,2.7,11.5,12.1,7.7,16.1-1.4,1.5-9,5.1-11.3,6.1-2.1,1-18.4,7.8-19.1,7.1h0Z"/>
  <path class="st3" d="M811.2,164.1c6.7,13,15.2,27,31.4,27.9-.4,3.3-3.6,5.4-4.8,8.8-1.7,4.5-3.4,12.5-2.8,17.1-2.9-.8-4.9-3.3-7.8-4.4-10.1-3.9-19-3.6-29.2-.1-2.2.8-13.2,7.4-14,6.6-1-9.7-3.5-17.7-9.8-25.1,7.6-1.5,14.7-3.5,20.4-9.1,5.1-5,8.4-13.4,12.8-18.8.6-.7,2.8-3.5,3.8-2.9h0Z"/>
</svg>